<svg xmlns="http://www.w3.org/2000/svg" viewBox="0 0 64 64" width="200" height="200">
  <path d="M16 36h32a8 8 0 0 0 0-16 12 12 0 0 0-23-4A8 8 0 0 0 8 32a6 6 0 0 0 8 4z" fill="#cfd8dc"/>
  <g stroke="#90caf9" stroke-linecap="round" stroke-width="2">
    <line x1="24" y1="46" x2="24" y2="52"/>
    <line x1="24" y1="49" x2="22" y2="51"/>
    <line x1="24" y1="49" x2="26" y2="51"/>
    <line x1="32" y1="46" x2="32" y2="52"/>
    <line x1="32" y1="49" x2="30" y2="51"/>
    <line x1="32" y1="49" x2="34" y2="51"/>
    <line x1="40" y1="46" x2="40" y2="52"/>
  </g>
</svg>